<?xml version="1.0" standalone="no"?><!DOCTYPE svg PUBLIC "-//W3C//DTD SVG 1.1//EN" "http://www.w3.org/Graphics/SVG/1.1/DTD/svg11.dtd"><svg t="1500968704774" class="icon" style="" viewBox="0 0 1024 1024" version="1.1" xmlns="http://www.w3.org/2000/svg" p-id="2885" xmlns:xlink="http://www.w3.org/1999/xlink" width="32" height="32"><defs><style type="text/css"></style></defs><path d="M530.5824 63.1552c-137.540267 0-264.136533 61.422933-348.692267 166.802133l-96.6048-96.603733-40.853333 285.973333 286.032-40.852266-86.504533-86.446934C312.069333 202.532267 416.487467 149.828267 530.5824 149.828267c199.099733 0 361.162667 162.0032 361.162667 361.137066 0 199.111467-162.062933 361.169067-361.162667 361.169067-139.346133 0-267.662933-81.5936-327.025067-207.765333-10.213333-21.6672-36.001067-31.0336-57.668266-20.765867-21.668267 10.155733-30.949333 36.0032-20.792534 57.6704 73.553067 156.417067 232.734933 257.533867 405.486934 257.533867 246.952533 0 447.8336-200.935467 447.8336-447.842134-0.001067-246.8992-200.8832-447.810133-447.834667-447.810133z" fill="#1296db" p-id="2886"></path></svg>